<?xml version="1.0" encoding="utf-8"?><svg version="1.1" id="Layer_1" xmlns="http://www.w3.org/2000/svg" xmlns:xlink="http://www.w3.org/1999/xlink" x="0px" y="0px" viewBox="0 0 122.64 122.88" style="enable-background:new 0 0 122.64 122.88" xml:space="preserve"><g><path d="M89.69,5.6l9.4,9.4c0.61,0.61,0.79,1.5,0.54,2.27l-1.1,4.56l3.1,3.1l4.91-1.05c0.76-0.16,1.52,0.09,2.03,0.6l0,0l8.84,8.84 c3.82,3.82,5.72,6.65,5.12,8.84c-0.69,2.52-3.78,3.34-9.85,2.7l-18.76-1.98L78.09,58.71l0.44,0.73c0.63,1.05,0.29,2.41-0.75,3.05 c-0.98,0.59-2.23,0.34-2.91-0.55l-3.97,3.97l0.44,0.73c0.63,1.05,0.29,2.41-0.75,3.05c-0.98,0.59-2.23,0.34-2.91-0.55L63.7,73.1 l0.44,0.73c0.63,1.05,0.29,2.41-0.75,3.05c-0.98,0.59-2.23,0.34-2.91-0.55l-3.97,3.97l0.44,0.73c0.63,1.05,0.29,2.41-0.75,3.05 c-0.98,0.59-2.23,0.34-2.91-0.55l-3.97,3.97l0.44,0.73c0.63,1.05,0.29,2.41-0.75,3.05c-0.98,0.59-2.23,0.34-2.91-0.55l-3.97,3.97 l0.44,0.73c0.63,1.05,0.29,2.41-0.75,3.05c-0.98,0.59-2.23,0.34-2.91-0.55l-3.97,3.97l0.44,0.73c0.63,1.05,0.29,2.41-0.75,3.05 c-1.05,0.63-2.41,0.29-3.05-0.75l-0.01-0.01L3.4,122.54c-1.04,0.65-2.4,0.34-3.05-0.69c-0.46-0.74-0.44-1.64-0.02-2.33l0,0 L17.6,91.27c0.09-0.15,0.2-0.29,0.32-0.41l0,0l3.23-3.23l-0.53-0.87c-0.63-1.05-0.29-2.41,0.75-3.05c1.03-0.62,2.35-0.31,3,0.69 l3.96-3.96l-0.53-0.87c-0.63-1.05-0.29-2.41,0.75-3.05c1.03-0.62,2.35-0.31,3,0.69l3.96-3.96l-0.53-0.87 c-0.63-1.05-0.29-2.41,0.75-3.05c1.03-0.62,2.35-0.31,3,0.69l3.96-3.96l-0.53-0.87c-0.63-1.05-0.29-2.41,0.75-3.05 c1.03-0.62,2.35-0.31,3,0.69l3.96-3.96l-0.53-0.87c-0.63-1.05-0.29-2.41,0.75-3.05c1.03-0.62,2.35-0.31,3,0.69l3.96-3.96 l-0.53-0.87c-0.63-1.05-0.29-2.41,0.75-3.05c1.03-0.62,2.35-0.31,3,0.69l3.96-3.96l-0.53-0.87c-0.63-1.05-0.29-2.41,0.75-3.05 c1.03-0.62,2.35-0.31,3,0.69l12.35-12.35L78,11.49c-0.72-6.6-0.26-10.16,2.02-11.21C82.31-0.78,85.29,1.19,89.69,5.6L89.69,5.6z M69.9,45.14l5.82,9.64L91.51,39l0,0c0.45-0.45,1.1-0.71,1.79-0.64l19.82,2.09l5.13,0.54c0.09-0.33-1.34-1.89-3.99-4.54l-7.99-7.99 l-4.79,1.02c-0.74,0.2-1.57,0.01-2.16-0.57l-4.83-4.83l0,0c-0.53-0.53-0.77-1.31-0.59-2.09l1.15-4.74l-8.52-8.52 C83.59,5.77,82,4.25,81.88,4.31c-0.14,0.06,0.05,2.24,0.53,6.72l1.99,18.29c0.12,0.69-0.09,1.42-0.62,1.95L69.9,45.14L69.9,45.14z M72.49,58.02l-5.82-9.64l-3.96,3.96l5.82,9.64L72.49,58.02L72.49,58.02z M65.3,65.22l-5.82-9.64l-3.96,3.96l5.82,9.64L65.3,65.22 L65.3,65.22z M58.1,72.41l-5.82-9.64l-3.96,3.96l5.82,9.64L58.1,72.41L58.1,72.41z M50.91,79.6l-5.82-9.64l-3.96,3.96l5.82,9.64 L50.91,79.6L50.91,79.6z M43.72,86.8l-5.82-9.64l-3.96,3.96l5.82,9.64L43.72,86.8L43.72,86.8z M36.52,93.99l-5.82-9.64l-3.96,3.96 l5.82,9.64L36.52,93.99L36.52,93.99z M29.27,101.08l-5.76-9.54l-2.28,2.28L9.02,113.78L29.27,101.08L29.27,101.08z"/></g></svg>